<svg width="64" height="64" viewBox="0 0 64 64" fill="none" xmlns="http://www.w3.org/2000/svg">
<g clip-path="url(#clip0_1_8)">
<path d="M46 4H18C10.268 4 4 10.268 4 18V46C4 53.732 10.268 60 18 60H46C53.732 60 60 53.732 60 46V18C60 10.268 53.732 4 46 4Z" fill="url(#paint0_linear_1_8)"/>
<mask id="mask0_1_8" style="mask-type:alpha" maskUnits="userSpaceOnUse" x="4" y="4" width="56" height="56">
<path d="M46 4H18C10.268 4 4 10.268 4 18V46C4 53.732 10.268 60 18 60H46C53.732 60 60 53.732 60 46V18C60 10.268 53.732 4 46 4Z" fill="url(#paint1_linear_1_8)"/>
</mask>
<g mask="url(#mask0_1_8)">
<path d="M20 42V26C20 22.7 22.7 20 26 20H38C41.3 20 44 22.7 44 26V42" stroke="#1F1A14" stroke-width="4" stroke-linecap="round"/>
<path d="M18 42H46Z" fill="black"/>
<path d="M18 42H46" stroke="#1F1A14" stroke-width="4" stroke-linecap="round"/>
<path d="M26 49C27.6569 49 29 47.6569 29 46C29 44.3431 27.6569 43 26 43C24.3431 43 23 44.3431 23 46C23 47.6569 24.3431 49 26 49Z" fill="#1F1A14"/>
<path d="M38 49C39.6569 49 41 47.6569 41 46C41 44.3431 39.6569 43 38 43C36.3431 43 35 44.3431 35 46C35 47.6569 36.3431 49 38 49Z" fill="#1F1A14"/>
<path d="M-12 42V26C-12 22.7 -9.3 20 -6 20H6C9.3 20 12 22.7 12 26V42" stroke="#1F1A14" stroke-width="4" stroke-linecap="round"/>
<path d="M-14 42H14Z" fill="black"/>
<path d="M-14 42H14" stroke="#1F1A14" stroke-width="4" stroke-linecap="round"/>
<path d="M6 49C7.65685 49 9 47.6569 9 46C9 44.3431 7.65685 43 6 43C4.34315 43 3 44.3431 3 46C3 47.6569 4.34315 49 6 49Z" fill="#1F1A14"/>
<path d="M52 42V26C52 22.7 54.7 20 58 20H70C73.3 20 76 22.7 76 26V42" stroke="#1F1A14" stroke-width="4" stroke-linecap="round"/>
<path d="M50 42H78Z" fill="black"/>
<path d="M50 42H78" stroke="#1F1A14" stroke-width="4" stroke-linecap="round"/>
<path d="M58 49C59.6569 49 61 47.6569 61 46C61 44.3431 59.6569 43 58 43C56.3431 43 55 44.3431 55 46C55 47.6569 56.3431 49 58 49Z" fill="#1F1A14"/>
</g>
</g>
<defs>
<linearGradient id="paint0_linear_1_8" x1="4" y1="4" x2="60" y2="60" gradientUnits="userSpaceOnUse">
<stop stop-color="#F0B35D"/>
<stop offset="1" stop-color="#7AA9F0"/>
</linearGradient>
<linearGradient id="paint1_linear_1_8" x1="4" y1="4" x2="60" y2="60" gradientUnits="userSpaceOnUse">
<stop stop-color="#F0B35D"/>
<stop offset="1" stop-color="#7AA9F0"/>
</linearGradient>
<clipPath id="clip0_1_8">
<rect width="64" height="64" fill="white"/>
</clipPath>
</defs>
</svg>
